<svg xmlns="http://www.w3.org/2000/svg" width="1600" height="868">
	<polygon points="0,560.686 36.4241,476.284 0.053966,590.488" style="fill:orange;stroke:black;stroke-width=0.3"/>
	<polygon points="-46.5141,-157.117 -46.5141,-157.117 -46.5141,-157.117" style="fill:brown;stroke:black;stroke-width=0.3"/>
	<polygon points="36.4241,476.284 36.0601,727.157 0.053966,590.488" style="fill:red;stroke:black;stroke-width=0.3"/>
	<polygon points="36.4241,476.284 249.296,841.007 36.0601,727.157" style="fill:darksalmon;stroke:black;stroke-width=0.3"/>
	<polygon points="36.4241,476.284 364.535,201.121 249.296,841.007" style="fill:yellow;stroke:black;stroke-width=0.3"/>
	<polygon points="36.4241,476.284 154.197,340.253 364.535,201.121" style="fill:purple;stroke:black;stroke-width=0.3"/>
	<polygon points="-46.5141,-157.117 -46.5141,-157.117 -46.5141,-157.117" style="fill:orange;stroke:black;stroke-width=0.3"/>
	<polygon points="154.197,340.253 236.452,278.16 364.535,201.121" style="fill:green;stroke:black;stroke-width=0.3"/>
	<polygon points="-46.5141,-157.117 -46.5141,-157.117 -46.5141,-157.117" style="fill:green;stroke:black;stroke-width=0.3"/>
	<polygon points="236.452,278.16 292.201,241.465 364.535,201.121" style="fill:aqua;stroke:black;stroke-width=0.3"/>
	<polygon points="-46.5141,-157.117 -46.5141,-157.117 -46.5141,-157.117" style="fill:blue;stroke:black;stroke-width=0.3"/>
	<polygon points="-46.5141,-157.117 -46.5141,-157.117 -46.5141,-157.117" style="fill:yellow;stroke:black;stroke-width=0.3"/>
	<polygon points="364.535,201.121 749.861,836.759 249.296,841.007" style="fill:lime;stroke:black;stroke-width=0.3"/>
	<polygon points="364.535,201.121 822.772,39.5894 749.861,836.759" style="fill:orange;stroke:black;stroke-width=0.3"/>
	<polygon points="364.535,201.121 562.318,112.421 822.772,39.5894" style="fill:orange;stroke:black;stroke-width=0.3"/>
	<polygon points="-46.5141,-157.117 -46.5141,-157.117 -46.5141,-157.117" style="fill:yellow;stroke:black;stroke-width=0.3"/>
	<polygon points="562.318,112.421 695.161,65.8276 822.772,39.5894" style="fill:green;stroke:black;stroke-width=0.3"/>
	<polygon points="562.318,112.421 623.6,90.2973 695.161,65.8276" style="fill:orange;stroke:black;stroke-width=0.3"/>
	<polygon points="-46.5141,-157.117 -46.5141,-157.117 -46.5141,-157.117" style="fill:blue;stroke:black;stroke-width=0.3"/>
	<polygon points="-46.5141,-157.117 -46.5141,-157.117 -46.5141,-157.117" style="fill:orange;stroke:black;stroke-width=0.3"/>
	<polygon points="-46.5141,-157.117 -46.5141,-157.117 -46.5141,-157.117" style="fill:darksalmon;stroke:black;stroke-width=0.3"/>
	<polygon points="822.772,39.5894 1237.86,663.213 749.861,836.759" style="fill:green;stroke:black;stroke-width=0.3"/>
	<polygon points="822.772,39.5894 1364.03,32.5672 1237.86,663.213" style="fill:yellow;stroke:black;stroke-width=0.3"/>
	<polygon points="822.772,39.5894 1118.45,0 1364.03,32.5672" style="fill:aqua;stroke:black;stroke-width=0.3"/>
	<polygon points="822.772,39.5894 969.134,13.1067 1118.45,0" style="fill:lime;stroke:black;stroke-width=0.3"/>
	<polygon points="-46.5141,-157.117 -46.5141,-157.117 -46.5141,-157.117" style="fill:yellow;stroke:black;stroke-width=0.3"/>
	<polygon points="969.134,13.1067 1075.46,2.36586 1118.45,0" style="fill:orange;stroke:black;stroke-width=0.3"/>
	<polygon points="969.134,13.1067 990.082,10.7817 1075.46,2.36586" style="fill:green;stroke:black;stroke-width=0.3"/>
	<polygon points="-46.5141,-157.117 -46.5141,-157.117 -46.5141,-157.117" style="fill:darksalmon;stroke:black;stroke-width=0.3"/>
	<polygon points="-46.5141,-157.117 -46.5141,-157.117 -46.5141,-157.117" style="fill:red;stroke:black;stroke-width=0.3"/>
	<polygon points="-46.5141,-157.117 -46.5141,-157.117 -46.5141,-157.117" style="fill:aqua;stroke:black;stroke-width=0.3"/>
	<polygon points="1118.45,0 1279.07,11.6294 1364.03,32.5672" style="fill:red;stroke:black;stroke-width=0.3"/>
	<polygon points="-46.5141,-157.117 -46.5141,-157.117 -46.5141,-157.117" style="fill:purple;stroke:black;stroke-width=0.3"/>
	<polygon points="-46.5141,-157.117 -46.5141,-157.117 -46.5141,-157.117" style="fill:orange;stroke:black;stroke-width=0.3"/>
	<polygon points="1364.03,32.5672 1564.76,375.04 1237.86,663.213" style="fill:red;stroke:black;stroke-width=0.3"/>
	<polygon points="1364.03,32.5672 1576.05,169.661 1564.76,375.04" style="fill:blue;stroke:black;stroke-width=0.3"/>
	<polygon points="1364.03,32.5672 1479.43,70.6267 1576.05,169.661" style="fill:green;stroke:black;stroke-width=0.3"/>
	<polygon points="1364.03,32.5672 1423.92,49.2755 1479.43,70.6267" style="fill:red;stroke:black;stroke-width=0.3"/>
	<polygon points="-46.5141,-157.117 -46.5141,-157.117 -46.5141,-157.117" style="fill:aqua;stroke:black;stroke-width=0.3"/>
	<polygon points="1423.92,49.2755 1469.36,66.0427 1479.43,70.6267" style="fill:blue;stroke:black;stroke-width=0.3"/>
	<polygon points="1423.92,49.2755 1426.17,49.9595 1469.36,66.0427" style="fill:purple;stroke:black;stroke-width=0.3"/>
	<polygon points="-46.5141,-157.117 -46.5141,-157.117 -46.5141,-157.117" style="fill:aqua;stroke:black;stroke-width=0.3"/>
	<polygon points="-46.5141,-157.117 -46.5141,-157.117 -46.5141,-157.117" style="fill:red;stroke:black;stroke-width=0.3"/>
	<polygon points="-46.5141,-157.117 -46.5141,-157.117 -46.5141,-157.117" style="fill:red;stroke:black;stroke-width=0.3"/>
	<polygon points="1479.43,70.6267 1557.87,129.267 1576.05,169.661" style="fill:green;stroke:black;stroke-width=0.3"/>
	<polygon points="-46.5141,-157.117 -46.5141,-157.117 -46.5141,-157.117" style="fill:orange;stroke:black;stroke-width=0.3"/>
	<polygon points="-46.5141,-157.117 -46.5141,-157.117 -46.5141,-157.117" style="fill:green;stroke:black;stroke-width=0.3"/>
	<polygon points="1576.05,169.661 1600,270.489 1564.76,375.04" style="fill:lime;stroke:black;stroke-width=0.3"/>
	<polygon points="1576.05,169.661 1596.04,217.074 1600,270.489" style="fill:purple;stroke:black;stroke-width=0.3"/>
	<polygon points="-46.5141,-157.117 -46.5141,-157.117 -46.5141,-157.117" style="fill:darksalmon;stroke:black;stroke-width=0.3"/>
	<polygon points="-46.5141,-157.117 -46.5141,-157.117 -46.5141,-157.117" style="fill:red;stroke:black;stroke-width=0.3"/>
	<polygon points="-46.5141,-157.117 -46.5141,-157.117 -46.5141,-157.117" style="fill:darksalmon;stroke:black;stroke-width=0.3"/>
	<polygon points="1564.76,375.04 1423.5,542.304 1237.86,663.213" style="fill:purple;stroke:black;stroke-width=0.3"/>
	<polygon points="1564.76,375.04 1524.89,443.553 1423.5,542.304" style="fill:purple;stroke:black;stroke-width=0.3"/>
	<polygon points="1564.76,375.04 1564.21,375.999 1524.89,443.553" style="fill:blue;stroke:black;stroke-width=0.3"/>
	<polygon points="-46.5141,-157.117 -46.5141,-157.117 -46.5141,-157.117" style="fill:brown;stroke:black;stroke-width=0.3"/>
	<polygon points="-46.5141,-157.117 -46.5141,-157.117 -46.5141,-157.117" style="fill:darksalmon;stroke:black;stroke-width=0.3"/>
	<polygon points="-46.5141,-157.117 -46.5141,-157.117 -46.5141,-157.117" style="fill:lime;stroke:black;stroke-width=0.3"/>
	<polygon points="1423.5,542.304 1338.15,604.206 1237.86,663.213" style="fill:aqua;stroke:black;stroke-width=0.3"/>
	<polygon points="-46.5141,-157.117 -46.5141,-157.117 -46.5141,-157.117" style="fill:orange;stroke:black;stroke-width=0.3"/>
	<polygon points="-46.5141,-157.117 -46.5141,-157.117 -46.5141,-157.117" style="fill:aqua;stroke:black;stroke-width=0.3"/>
	<polygon points="1237.86,663.213 945.091,789.297 749.861,836.759" style="fill:yellow;stroke:black;stroke-width=0.3"/>
	<polygon points="1237.86,663.213 1100.8,731.89 945.091,789.297" style="fill:yellow;stroke:black;stroke-width=0.3"/>
	<polygon points="1237.86,663.213 1211.03,678.551 1100.8,731.89" style="fill:blue;stroke:black;stroke-width=0.3"/>
	<polygon points="-46.5141,-157.117 -46.5141,-157.117 -46.5141,-157.117" style="fill:aqua;stroke:black;stroke-width=0.3"/>
	<polygon points="-46.5141,-157.117 -46.5141,-157.117 -46.5141,-157.117" style="fill:darksalmon;stroke:black;stroke-width=0.3"/>
	<polygon points="-46.5141,-157.117 -46.5141,-157.117 -46.5141,-157.117" style="fill:purple;stroke:black;stroke-width=0.3"/>
	<polygon points="945.091,789.297 857.25,814.193 749.861,836.759" style="fill:orange;stroke:black;stroke-width=0.3"/>
	<polygon points="-46.5141,-157.117 -46.5141,-157.117 -46.5141,-157.117" style="fill:aqua;stroke:black;stroke-width=0.3"/>
	<polygon points="-46.5141,-157.117 -46.5141,-157.117 -46.5141,-157.117" style="fill:orange;stroke:black;stroke-width=0.3"/>
	<polygon points="749.861,836.759 513.841,865.646 249.296,841.007" style="fill:yellow;stroke:black;stroke-width=0.3"/>
	<polygon points="749.861,836.759 612.207,858.792 513.841,865.646" style="fill:blue;stroke:black;stroke-width=0.3"/>
	<polygon points="-46.5141,-157.117 -46.5141,-157.117 -46.5141,-157.117" style="fill:purple;stroke:black;stroke-width=0.3"/>
	<polygon points="-46.5141,-157.117 -46.5141,-157.117 -46.5141,-157.117" style="fill:aqua;stroke:black;stroke-width=0.3"/>
	<polygon points="513.841,865.646 361.549,859.254 249.296,841.007" style="fill:yellow;stroke:black;stroke-width=0.3"/>
	<polygon points="513.841,865.646 445.119,867.314 361.549,859.254" style="fill:darksalmon;stroke:black;stroke-width=0.3"/>
	<polygon points="513.841,865.646 479.089,867.956 445.119,867.314" style="fill:aqua;stroke:black;stroke-width=0.3"/>
	<polygon points="-46.5141,-157.117 -46.5141,-157.117 -46.5141,-157.117" style="fill:orange;stroke:black;stroke-width=0.3"/>
	<polygon points="479.089,867.956 452.365,867.488 445.119,867.314" style="fill:red;stroke:black;stroke-width=0.3"/>
	<polygon points="-46.5141,-157.117 -46.5141,-157.117 -46.5141,-157.117" style="fill:red;stroke:black;stroke-width=0.3"/>
	<polygon points="-46.5141,-157.117 -46.5141,-157.117 -46.5141,-157.117" style="fill:lime;stroke:black;stroke-width=0.3"/>
	<polygon points="-46.5141,-157.117 -46.5141,-157.117 -46.5141,-157.117" style="fill:brown;stroke:black;stroke-width=0.3"/>
	<polygon points="-46.5141,-157.117 -46.5141,-157.117 -46.5141,-157.117" style="fill:orange;stroke:black;stroke-width=0.3"/>
	<polygon points="249.296,841.007 111.976,791.881 36.0601,727.157" style="fill:green;stroke:black;stroke-width=0.3"/>
	<polygon points="249.296,841.007 174.123,820.863 111.976,791.881" style="fill:lime;stroke:black;stroke-width=0.3"/>
	<polygon points="249.296,841.007 213.034,832.635 174.123,820.863" style="fill:green;stroke:black;stroke-width=0.3"/>
	<polygon points="-46.5141,-157.117 -46.5141,-157.117 -46.5141,-157.117" style="fill:red;stroke:black;stroke-width=0.3"/>
	<polygon points="-46.5141,-157.117 -46.5141,-157.117 -46.5141,-157.117" style="fill:red;stroke:black;stroke-width=0.3"/>
	<polygon points="-46.5141,-157.117 -46.5141,-157.117 -46.5141,-157.117" style="fill:aqua;stroke:black;stroke-width=0.3"/>
	<polygon points="111.976,791.881 72.9864,764.838 36.0601,727.157" style="fill:lime;stroke:black;stroke-width=0.3"/>
	<polygon points="-46.5141,-157.117 -46.5141,-157.117 -46.5141,-157.117" style="fill:purple;stroke:black;stroke-width=0.3"/>
	<polygon points="72.9864,764.838 46.1229,739.742 36.0601,727.157" style="fill:blue;stroke:black;stroke-width=0.3"/>
	<polygon points="-46.5141,-157.117 -46.5141,-157.117 -46.5141,-157.117" style="fill:blue;stroke:black;stroke-width=0.3"/>
	<polygon points="-46.5141,-157.117 -46.5141,-157.117 -46.5141,-157.117" style="fill:yellow;stroke:black;stroke-width=0.3"/>
	<polygon points="36.0601,727.157 6.25597,679.367 0.053966,590.488" style="fill:yellow;stroke:black;stroke-width=0.3"/>
	<polygon points="-46.5141,-157.117 -46.5141,-157.117 -46.5141,-157.117" style="fill:lime;stroke:black;stroke-width=0.3"/>
	<polygon points="-46.5141,-157.117 -46.5141,-157.117 -46.5141,-157.117" style="fill:darksalmon;stroke:black;stroke-width=0.3"/>
	<line x1="0" y1="560.686" x2="36.4241" y2="476.284" stroke-width="2" stroke="black"/>
	<line x1="36.4241" y1="476.284" x2="154.197" y2="340.253" stroke-width="2" stroke="black"/>
	<line x1="154.197" y1="340.253" x2="236.452" y2="278.16" stroke-width="2" stroke="black"/>
	<line x1="236.452" y1="278.16" x2="292.201" y2="241.465" stroke-width="2" stroke="black"/>
	<line x1="292.201" y1="241.465" x2="364.535" y2="201.121" stroke-width="2" stroke="black"/>
	<line x1="364.535" y1="201.121" x2="562.318" y2="112.421" stroke-width="2" stroke="black"/>
	<line x1="562.318" y1="112.421" x2="623.6" y2="90.2973" stroke-width="2" stroke="black"/>
	<line x1="623.6" y1="90.2973" x2="695.161" y2="65.8276" stroke-width="2" stroke="black"/>
	<line x1="695.161" y1="65.8276" x2="822.772" y2="39.5894" stroke-width="2" stroke="black"/>
	<line x1="822.772" y1="39.5894" x2="969.134" y2="13.1067" stroke-width="2" stroke="black"/>
	<line x1="969.134" y1="13.1067" x2="990.082" y2="10.7817" stroke-width="2" stroke="black"/>
	<line x1="990.082" y1="10.7817" x2="1075.46" y2="2.36586" stroke-width="2" stroke="black"/>
	<line x1="1075.46" y1="2.36586" x2="1118.45" y2="0" stroke-width="2" stroke="black"/>
	<line x1="1118.45" y1="0" x2="1279.07" y2="11.6294" stroke-width="2" stroke="black"/>
	<line x1="1279.07" y1="11.6294" x2="1364.03" y2="32.5672" stroke-width="2" stroke="black"/>
	<line x1="1364.03" y1="32.5672" x2="1423.92" y2="49.2755" stroke-width="2" stroke="black"/>
	<line x1="1423.92" y1="49.2755" x2="1426.17" y2="49.9595" stroke-width="2" stroke="black"/>
	<line x1="1426.17" y1="49.9595" x2="1469.36" y2="66.0427" stroke-width="2" stroke="black"/>
	<line x1="1469.36" y1="66.0427" x2="1479.43" y2="70.6267" stroke-width="2" stroke="black"/>
	<line x1="1479.43" y1="70.6267" x2="1557.87" y2="129.267" stroke-width="2" stroke="black"/>
	<line x1="1557.87" y1="129.267" x2="1576.05" y2="169.661" stroke-width="2" stroke="black"/>
	<line x1="1576.05" y1="169.661" x2="1596.04" y2="217.074" stroke-width="2" stroke="black"/>
	<line x1="1596.04" y1="217.074" x2="1600" y2="270.489" stroke-width="2" stroke="black"/>
	<line x1="1600" y1="270.489" x2="1564.76" y2="375.04" stroke-width="2" stroke="black"/>
	<line x1="1564.76" y1="375.04" x2="1564.21" y2="375.999" stroke-width="2" stroke="black"/>
	<line x1="1564.21" y1="375.999" x2="1524.89" y2="443.553" stroke-width="2" stroke="black"/>
	<line x1="1524.89" y1="443.553" x2="1423.5" y2="542.304" stroke-width="2" stroke="black"/>
	<line x1="1423.5" y1="542.304" x2="1338.15" y2="604.206" stroke-width="2" stroke="black"/>
	<line x1="1338.15" y1="604.206" x2="1237.86" y2="663.213" stroke-width="2" stroke="black"/>
	<line x1="1237.86" y1="663.213" x2="1211.03" y2="678.551" stroke-width="2" stroke="black"/>
	<line x1="1211.03" y1="678.551" x2="1100.8" y2="731.89" stroke-width="2" stroke="black"/>
	<line x1="1100.8" y1="731.89" x2="945.091" y2="789.297" stroke-width="2" stroke="black"/>
	<line x1="945.091" y1="789.297" x2="857.25" y2="814.193" stroke-width="2" stroke="black"/>
	<line x1="857.25" y1="814.193" x2="749.861" y2="836.759" stroke-width="2" stroke="black"/>
	<line x1="749.861" y1="836.759" x2="612.207" y2="858.792" stroke-width="2" stroke="black"/>
	<line x1="612.207" y1="858.792" x2="513.841" y2="865.646" stroke-width="2" stroke="black"/>
	<line x1="513.841" y1="865.646" x2="479.089" y2="867.956" stroke-width="2" stroke="black"/>
	<line x1="479.089" y1="867.956" x2="452.365" y2="867.488" stroke-width="2" stroke="black"/>
	<line x1="452.365" y1="867.488" x2="445.119" y2="867.314" stroke-width="2" stroke="black"/>
	<line x1="445.119" y1="867.314" x2="361.549" y2="859.254" stroke-width="2" stroke="black"/>
	<line x1="361.549" y1="859.254" x2="249.296" y2="841.007" stroke-width="2" stroke="black"/>
	<line x1="249.296" y1="841.007" x2="213.034" y2="832.635" stroke-width="2" stroke="black"/>
	<line x1="213.034" y1="832.635" x2="174.123" y2="820.863" stroke-width="2" stroke="black"/>
	<line x1="174.123" y1="820.863" x2="111.976" y2="791.881" stroke-width="2" stroke="black"/>
	<line x1="111.976" y1="791.881" x2="72.9864" y2="764.838" stroke-width="2" stroke="black"/>
	<line x1="72.9864" y1="764.838" x2="46.1229" y2="739.742" stroke-width="2" stroke="black"/>
	<line x1="46.1229" y1="739.742" x2="36.0601" y2="727.157" stroke-width="2" stroke="black"/>
	<line x1="36.0601" y1="727.157" x2="6.25597" y2="679.367" stroke-width="2" stroke="black"/>
	<line x1="6.25597" y1="679.367" x2="0.053966" y2="590.488" stroke-width="2" stroke="black"/>
	<line x1="0.053966" y1="590.488" x2="0" y2="560.686" stroke-width="2" stroke="black"/>
</svg>
